<?xml version="1.0" encoding="utf-8"?>
<!-- Generator: Adobe Illustrator 19.2.1, SVG Export Plug-In . SVG Version: 6.00 Build 0)  -->
<svg version="1.1" id="Calque_1" xmlns="http://www.w3.org/2000/svg" xmlns:xlink="http://www.w3.org/1999/xlink" x="0px" y="0px"
	 width="438px" height="677px" viewBox="0 0 438 677" style="enable-background:new 0 0 438 677;" xml:space="preserve">
<style type="text/css">
	.st0{fill:#DA0000;}
</style>
<g>
	<g>
		<path class="st0" d="M198.4,355.5c5.8,1.4,11.3,2.7,16.4,4.1c72.5,19,127.9,39.3,127.9,112.9c0,62.3-55.5,113-123.7,113
			s-123.7-50.7-123.7-113c0-30.1,12.8-58.4,36-79.7c6.6-6.1,7-16.3,0.8-22.8s-16.6-6.9-23.3-0.8c-30,27.5-46.5,64.2-46.5,103.3
			c0,80.1,70.2,145.2,156.6,145.2s156.6-65.2,156.6-145.2c0-104.2-91.7-128.2-152.3-144.1c-5.2-1.4-10.9-2.7-16.9-4.2
			C143.9,309,49.5,286.1,49.5,180.5c0-81.7,76-148.2,169.5-148.2c93.4,0,169.5,66.5,169.5,148.2c0,33.3-12.3,64.7-35.6,90.9
			c-6,6.7-5.3,16.9,1.6,22.8c3.1,2.7,7,4,10.8,4c4.6,0,9.1-1.9,12.4-5.5c28.6-32.2,43.8-70.9,43.8-112.1C421.4,81,330.6,0,219,0
			S16.6,81,16.6,180.5C16.6,311.4,134.9,340.1,198.4,355.5z M294,283c36.9-21.9,60.5-59.4,60.5-101.6c0-67.1-60.8-121.8-135.5-121.8
			S83.5,114.2,83.5,181.3c0,31.5,13.4,61.5,37.6,84.2c6.6,6.2,17,5.9,23.3-0.5c6.3-6.4,6.1-16.7-0.5-22.8
			c-17.7-16.6-27.4-38.2-27.4-60.9c0-49.3,46-89.5,102.6-89.5s102.6,40.1,102.6,89.5c0,44-36,81.1-85.9,88.3v31.9
			c78.1,11.8,169.4,63.8,169.4,171.6c0,94.6-83.5,171.6-186.1,171.6S33,567.7,33,473.1c0-39.4,14.8-77.9,41.8-108.3
			c6-6.7,5.2-16.9-1.6-22.8c-6.9-5.8-17.3-5.1-23.2,1.6C17.7,380,0,426,0,473.1C0,585.5,98.2,677,219,677s219-91.5,219-203.9
			C438,369.5,368.6,309.5,294,283z"/>
	</g>
</g>
</svg>
